<?xml version="1.0" encoding="utf-8"?>
<!-- Generator: Adobe Illustrator 16.0.0, SVG Export Plug-In . SVG Version: 6.00 Build 0)  -->
<!DOCTYPE svg PUBLIC "-//W3C//DTD SVG 1.1//EN" "http://www.w3.org/Graphics/SVG/1.1/DTD/svg11.dtd">
<svg version="1.1" id="Ebene_1" xmlns="http://www.w3.org/2000/svg" xmlns:xlink="http://www.w3.org/1999/xlink" x="0px" y="0px"
	 width="329.341px" height="199.82px" viewBox="0 0 329.341 199.82" enable-background="new 0 0 329.341 199.82"
	 xml:space="preserve">
<g>
	<g>
		<g>
			<g>
				<g>
					<path fill="#BA141A" d="M118.011,15.493c2.154,0,7.915,1.091,7.915,4.058c0,1.841-2.628,2.658-4.076,2.845
						c-37.53,4.847-81.447,27.839-81.447,70.962c0,21.891,7.554,40.723,17.533,59.882c0.156,0.299,0.255,0.623,0.255,0.963
						c0,2.428-4.126,2.968-5.853,2.968c-2.298,0-6.473-0.814-7.66-3.095c-10.342-19.855-18.043-39.122-18.043-61.808
						c0-47.135,49.031-71.222,89.599-76.653L118.011,15.493z"/>
					<path fill="none" stroke="#BA141A" stroke-width="0" stroke-miterlimit="1" d="M118.011,15.493
						c2.154,0,7.915,1.091,7.915,4.058c0,1.841-2.628,2.658-4.076,2.845c-37.53,4.847-81.447,27.839-81.447,70.962
						c0,21.891,7.554,40.723,17.533,59.882c0.156,0.299,0.255,0.623,0.255,0.963c0,2.428-4.126,2.968-5.853,2.968
						c-2.298,0-6.473-0.814-7.66-3.095c-10.342-19.855-18.043-39.122-18.043-61.808c0-47.135,49.031-71.222,89.599-76.653
						L118.011,15.493z"/>
				</g>
			</g>
		</g>
		<g>
			<g>
				<g>
					<path fill="#BA141A" d="M64.812,20.3c1.476,0,2.018,1.44,2.018,2.698c0,3.307-2.72,7.409-5.589,8.956
						C35.496,45.834,9.486,70.545,9.486,101.699c0,38.568,42.363,65.914,42.363,71.282c0,3.333-3.77,9.495-7.485,9.495
						c-0.452,0-0.904-0.161-1.243-0.461C19.875,161.457,0,138.187,0,105.625c0-35.631,33.472-68.713,62.917-84.785
						C63.498,20.522,64.146,20.3,64.812,20.3z"/>
					<path fill="none" stroke="#BA141A" stroke-width="0" stroke-miterlimit="1" d="M64.812,20.3c1.476,0,2.018,1.44,2.018,2.698
						c0,3.307-2.72,7.409-5.589,8.956C35.496,45.834,9.486,70.545,9.486,101.699c0,38.568,42.363,65.914,42.363,71.282
						c0,3.333-3.77,9.495-7.485,9.495c-0.452,0-0.904-0.161-1.243-0.461C19.875,161.457,0,138.187,0,105.625
						c0-35.631,33.472-68.713,62.917-84.785C63.498,20.522,64.146,20.3,64.812,20.3z"/>
				</g>
			</g>
		</g>
		<g>
			<g>
				<g>
					<path fill="#BA141A" d="M224.914,77.846c0,1.389-1.062,2.109-2.367,2.109c-3.464,0-7.995-3.908-8.949-7.148
						c-2.488-8.45-7.283-17.159-12.525-24.201c-21.695-29.152-54.312-38.262-89.461-38.262c-10.279,0-20.53,1.244-30.678,2.758
						l-0.537,0.032c-3.483,0-9.12-4.587-9.12-8.235c0-1.132,0.725-1.912,1.831-2.077C83.524,1.267,94.084,0,104.635,0
						c15.877,0,31.493,1.643,46.69,6.427c32.55,10.249,63.483,36.813,73.417,70.332C224.847,77.11,224.914,77.479,224.914,77.846z"
						/>
					<path fill="none" stroke="#BA141A" stroke-width="0" stroke-miterlimit="1" d="M224.914,77.846
						c0,1.389-1.062,2.109-2.367,2.109c-3.464,0-7.995-3.908-8.949-7.148c-2.488-8.45-7.283-17.159-12.525-24.201
						c-21.695-29.152-54.312-38.262-89.461-38.262c-10.279,0-20.53,1.244-30.678,2.758l-0.537,0.032c-3.483,0-9.12-4.587-9.12-8.235
						c0-1.132,0.725-1.912,1.831-2.077C83.524,1.267,94.084,0,104.635,0c15.877,0,31.493,1.643,46.69,6.427
						c32.55,10.249,63.483,36.813,73.417,70.332C224.847,77.11,224.914,77.479,224.914,77.846z"/>
				</g>
			</g>
		</g>
	</g>
	<g>
		<g>
			<g>
				<path fill="#BA141A" d="M203.462,197.711c0,1.389-1.062,2.109-2.368,2.109c-0.993,0-1.904-0.361-2.806-0.732
					c-18.994-7.836-52.833-9.428-72.759-9.428c-17.83,0-35.63,1.164-53.371,2.876l-0.433,0.021c-3.484,0-9.121-4.588-9.121-8.236
					c0-1.163,0.784-1.979,1.934-2.09c18.029-1.738,36.117-2.916,54.237-2.916C123.238,179.314,203.462,180.689,203.462,197.711z"/>
				<path fill="none" stroke="#BA141A" stroke-width="0" stroke-miterlimit="1" d="M203.462,197.711
					c0,1.389-1.062,2.109-2.368,2.109c-0.993,0-1.904-0.361-2.806-0.732c-18.994-7.836-52.833-9.428-72.759-9.428
					c-17.83,0-35.63,1.164-53.371,2.876l-0.433,0.021c-3.484,0-9.121-4.588-9.121-8.236c0-1.163,0.784-1.979,1.934-2.09
					c18.029-1.738,36.117-2.916,54.237-2.916C123.238,179.314,203.462,180.689,203.462,197.711z"/>
			</g>
		</g>
	</g>
	<g>
		<g>
			<g>
				<path fill-rule="evenodd" clip-rule="evenodd" d="M248.687,108.138l0.212-1.07l6.298-0.296l-0.127,1.888
					c-0.92,1.174-1.752,2.353-2.493,3.536c-0.968,1.559-1.579,2.832-1.832,3.818l5.001,0.282l-0.225,1.24l-7.186-0.057l-0.31-1.042
					c0.206-0.479,0.544-1.193,1.014-2.141c0.235-0.423,0.555-0.939,0.958-1.55c0.648-0.996,0.977-1.503,0.987-1.521l1.774-2.79
					c-0.188-0.019-0.451-0.042-0.789-0.07C251.256,108.307,250.162,108.232,248.687,108.138z"/>
				<path fill-rule="evenodd" clip-rule="evenodd" d="M259.028,117.507l-1.508,0.126l-0.353-7.368
					c-0.009-0.517-0.038-1.32-0.084-2.409l2.438-0.226c-0.104,1.653-0.208,3.301-0.311,4.945
					C259.089,114.586,259.028,116.229,259.028,117.507z"/>
				<path fill-rule="evenodd" clip-rule="evenodd" d="M267.03,113.407l-3.227,0.225v0.381c-0.01,1.277,0.065,2.01,0.225,2.197
					c0.16,0.188,1.302,0.263,3.424,0.226l-0.197,1c-1.784,0.16-3.179,0.239-4.184,0.239c-0.611,0-0.944-0.042-1-0.127
					c-0.188-0.244-0.282-2.362-0.282-6.354c0-1.954,0.089-3.024,0.268-3.212c0.188-0.188,1.677-0.282,4.466-0.282
					c0.45,0,0.841,0.004,1.17,0.014l-0.268,1.212c-1.954,0-3.044,0.122-3.27,0.366c-0.179,0.197-0.276,1.104-0.296,2.719
					l0.212,0.268l3.1,0.155L267.03,113.407z"/>
				<path fill-rule="evenodd" clip-rule="evenodd" d="M269.228,117.746c0.057-0.582,0.084-1.845,0.084-3.79
					c0-0.77-0.019-1.798-0.057-3.085c-0.037-1.531-0.061-2.564-0.07-3.099l2.536-0.197c-0.263,1.606-0.498,4.41-0.704,8.411
					l3.551,0.239l-0.197,1.141L269.228,117.746z"/>
				<path fill-rule="evenodd" clip-rule="evenodd" d="M277.483,109.096l-0.24,1.747c0.075,0.113,0.771,0.446,2.085,1
					c1.277,0.536,2.006,0.996,2.184,1.381c0.075,0.131,0.112,0.329,0.112,0.591c0,0.254-0.064,0.728-0.197,1.423
					c-0.141,0.752-0.263,1.207-0.366,1.367c-0.093,0.15-0.243,0.38-0.45,0.69c-0.761,0.235-1.705,0.352-2.832,0.352
					c-0.846,0-1.602-0.051-2.269-0.155l-0.112-1.451c0.573,0.197,1.217,0.296,1.93,0.296c0.357,0,0.737-0.042,1.142-0.127
					c0.489-0.103,0.836-0.239,1.042-0.408c0.066-0.056,0.099-0.202,0.099-0.437c0-0.366-0.061-0.84-0.183-1.423
					c-0.169-0.16-0.831-0.483-1.986-0.972c-1.08-0.451-1.69-0.799-1.831-1.043c-0.142-0.244-0.212-0.935-0.212-2.071
					c0-0.583,0.02-0.944,0.057-1.085c0.056-0.197,0.239-0.498,0.55-0.901c0.141-0.188,0.704-0.282,1.689-0.282
					c1.016,0,2.188,0.075,3.522,0.225l-0.295,1.099c-0.02,0-0.048,0-0.085,0c-0.179,0-0.456-0.009-0.831-0.028
					c-0.366-0.019-0.644-0.028-0.832-0.028C278.338,108.857,277.774,108.937,277.483,109.096z"/>
				<path fill-rule="evenodd" clip-rule="evenodd" d="M289.274,108.885l-2.324,0.451l-0.254,0.366
					c-0.057,1.728-0.155,4.32-0.296,7.776l-1.578,0.324c0.028-0.385,0.042-0.803,0.042-1.253c0-0.526-0.018-1.324-0.056-2.395
					c-0.037-1.071-0.057-1.869-0.057-2.395c0-0.535-0.056-1.249-0.169-2.141l-0.381-0.226l-2.184-0.254l0.184-1.197
					c2.292-0.084,4.598-0.183,6.917-0.295L289.274,108.885z"/>
				<path fill-rule="evenodd" clip-rule="evenodd" d="M292.261,117.38l-2.071,0.226c0.122-1.541,0.184-3.156,0.184-4.846
					c0,0-0.023-1.658-0.07-4.973l2.522-0.155c0.365-0.028,0.816-0.009,1.352,0.057c0.461,0.056,0.916,0.117,1.367,0.183l0.929,0.817
					c0.095,0.545,0.193,1.085,0.296,1.62c0.123,0.695,0.17,1.221,0.142,1.578v0.07c-0.272,0.31-0.545,0.625-0.817,0.944
					c-0.375,0.423-0.681,0.667-0.916,0.732c0.47,0.827,1.466,2.203,2.987,4.128l-1.324,0.38c-0.254-0.244-0.977-1.019-2.17-2.324
					c-1.23-1.343-1.869-2.071-1.916-2.184c0,0-0.074-0.216-0.226-0.648c0.761-0.207,1.217-0.348,1.367-0.422
					c0.281-0.141,0.648-0.46,1.099-0.958l-0.296-2.649l-2.564,0.155c-0.028,1.249-0.042,2.348-0.042,3.296
					C292.092,114.285,292.148,115.943,292.261,117.38z"/>
				<path fill-rule="evenodd" clip-rule="evenodd" d="M300.052,117.451l-1.606,0.183c0.356-2.329,0.662-4.024,0.916-5.085
					c0.441-1.878,1.019-3.494,1.732-4.846l3.382-0.211c0.732,2.536,1.239,4.527,1.521,5.973c0.065,0.31,0.146,0.771,0.239,1.381
					c0,0,0.085,0.92,0.253,2.761l-1.958-0.197l-0.197-2.86l-2.592,0.324l-1.042-0.268L300.052,117.451z M304.095,112.787
					c0-0.272-0.136-0.906-0.409-1.902c-0.271-1.005-0.479-1.62-0.619-1.845l-1.113,0.098c-0.365,1.099-0.619,2.043-0.761,2.832
					c-0.019,0.16-0.047,0.404-0.084,0.732c-0.037,0.197-0.085,0.489-0.141,0.874l3.084-0.282
					C304.08,113.294,304.095,113.125,304.095,112.787z"/>
				<path fill-rule="evenodd" clip-rule="evenodd" d="M309.927,109.096l-0.239,1.747c0.075,0.113,0.771,0.446,2.085,1
					c1.277,0.536,2.006,0.996,2.184,1.381c0.075,0.131,0.113,0.329,0.113,0.591c0,0.254-0.065,0.728-0.197,1.423
					c-0.142,0.752-0.263,1.207-0.367,1.367c-0.094,0.15-0.244,0.38-0.45,0.69c-0.761,0.235-1.704,0.352-2.832,0.352
					c-0.845,0-1.601-0.051-2.268-0.155l-0.112-1.451c0.572,0.197,1.216,0.296,1.929,0.296c0.357,0,0.737-0.042,1.142-0.127
					c0.488-0.103,0.836-0.239,1.042-0.408c0.066-0.056,0.1-0.202,0.1-0.437c0-0.366-0.062-0.84-0.184-1.423
					c-0.169-0.16-0.831-0.483-1.986-0.972c-1.08-0.451-1.69-0.799-1.831-1.043c-0.141-0.244-0.211-0.935-0.211-2.071
					c0-0.583,0.018-0.944,0.056-1.085c0.057-0.197,0.239-0.498,0.549-0.901c0.142-0.188,0.705-0.282,1.691-0.282
					c1.015,0,2.188,0.075,3.521,0.225l-0.296,1.099c-0.019,0-0.047,0-0.084,0c-0.179,0-0.455-0.009-0.832-0.028
					c-0.365-0.019-0.643-0.028-0.831-0.028C310.781,108.857,310.218,108.937,309.927,109.096z"/>
				<path fill-rule="evenodd" clip-rule="evenodd" d="M317.534,109.096l-0.239,1.747c0.075,0.113,0.771,0.446,2.085,1
					c1.277,0.536,2.005,0.996,2.184,1.381c0.075,0.131,0.113,0.329,0.113,0.591c0,0.254-0.066,0.728-0.197,1.423
					c-0.142,0.752-0.264,1.207-0.366,1.367c-0.095,0.15-0.245,0.38-0.451,0.69c-0.761,0.235-1.704,0.352-2.832,0.352
					c-0.845,0-1.601-0.051-2.269-0.155l-0.111-1.451c0.572,0.197,1.216,0.296,1.93,0.296c0.356,0,0.737-0.042,1.142-0.127
					c0.487-0.103,0.835-0.239,1.042-0.408c0.065-0.056,0.099-0.202,0.099-0.437c0-0.366-0.062-0.84-0.184-1.423
					c-0.169-0.16-0.831-0.483-1.986-0.972c-1.08-0.451-1.69-0.799-1.831-1.043c-0.141-0.244-0.211-0.935-0.211-2.071
					c0-0.583,0.018-0.944,0.056-1.085c0.056-0.197,0.239-0.498,0.549-0.901c0.142-0.188,0.705-0.282,1.691-0.282
					c1.014,0,2.188,0.075,3.521,0.225l-0.296,1.099c-0.019,0-0.047,0-0.084,0c-0.179,0-0.455-0.009-0.832-0.028
					c-0.366-0.019-0.643-0.028-0.83-0.028C318.389,108.857,317.826,108.937,317.534,109.096z"/>
				<path fill-rule="evenodd" clip-rule="evenodd" d="M328.679,113.407l-3.227,0.225v0.381c-0.01,1.277,0.065,2.01,0.225,2.197
					c0.16,0.188,1.302,0.263,3.424,0.226l-0.197,1c-1.784,0.16-3.179,0.239-4.185,0.239c-0.609,0-0.943-0.042-1-0.127
					c-0.188-0.244-0.281-2.362-0.281-6.354c0-1.954,0.089-3.024,0.268-3.212c0.188-0.188,1.676-0.282,4.466-0.282
					c0.451,0,0.841,0.004,1.17,0.014l-0.269,1.212c-1.953,0-3.042,0.122-3.268,0.366c-0.179,0.197-0.278,1.104-0.296,2.719
					l0.211,0.268l3.099,0.155L328.679,113.407z"/>
			</g>
			<g>
				<path fill-rule="evenodd" clip-rule="evenodd" d="M118.589,100.132l-3.327,0.352c-0.574-1.057-1.108-2.622-1.604-4.696
					c-0.366-1.657-0.731-3.307-1.096-4.951l-0.45,0.548c-0.704,3.587-1.435,6.536-2.191,8.844l-3.62,0.157
					c-1.018-6.379-1.63-11.277-1.839-14.695l2.25-0.528l0.92,0.842c0.065,2.791,0.228,6.744,0.489,11.857l0.646-0.43l2.72-10.018
					l2.739-0.254c0.444,1.2,0.854,2.922,1.233,5.166c0.261,1.787,0.528,3.574,0.802,5.361l0.822-0.959l1.135-9.744l0.939-1.232
					l2.681-0.293c-0.04,0.117-0.502,1.754-1.39,4.911c-0.013,0.052-0.228,1.141-0.646,3.268
					C119.515,95.084,119.11,97.25,118.589,100.132z"/>
				<path fill-rule="evenodd" clip-rule="evenodd" d="M124.458,100.171l-2.23,0.254c0.496-3.235,0.919-5.59,1.272-7.063
					c0.613-2.609,1.415-4.853,2.407-6.731l4.696-0.293c1.018,3.522,1.722,6.287,2.113,8.296c0.091,0.43,0.202,1.069,0.333,1.917
					c0,0,0.118,1.279,0.352,3.835l-2.719-0.274l-0.274-3.972l-3.6,0.45l-1.448-0.372L124.458,100.171z M130.074,93.695
					c0-0.378-0.189-1.259-0.567-2.642c-0.378-1.396-0.666-2.25-0.861-2.563l-1.546,0.137c-0.509,1.526-0.861,2.837-1.056,3.933
					c-0.026,0.222-0.065,0.561-0.118,1.018c-0.052,0.273-0.117,0.678-0.195,1.213l4.285-0.392
					C130.055,94.399,130.074,94.165,130.074,93.695z"/>
				<path fill-rule="evenodd" clip-rule="evenodd" d="M135.611,100.582c0.079-0.809,0.118-2.563,0.118-5.263
					c0-1.07-0.026-2.498-0.079-4.285c-0.052-2.126-0.084-3.561-0.098-4.305l3.522-0.274c-0.365,2.23-0.691,6.125-0.978,11.682
					l4.931,0.333l-0.274,1.584L135.611,100.582z"/>
				<path fill-rule="evenodd" clip-rule="evenodd" d="M148.721,100.387c-0.691,0-2.002-0.026-3.933-0.079
					c-0.078-1.774-0.176-4.441-0.293-8.002c-0.013-1.239-0.059-3.092-0.137-5.557l5.009-0.293c0.352-0.013,1.089,0.124,2.211,0.411
					c1.135,0.287,1.794,0.535,1.977,0.743c0.065,0.091,0.156,0.222,0.274,0.392c0.587,0.887,0.88,1.807,0.88,2.759
					c0,4.422-0.744,7.305-2.23,8.648c-0.353,0.313-0.946,0.561-1.781,0.744C150.006,100.308,149.347,100.387,148.721,100.387z
					 M151.812,89.527l-1.78-1.037l-2.544-0.02c-0.118,2.608-0.176,4.735-0.176,6.379l0.019,3.972
					c0.261,0.026,0.529,0.039,0.802,0.039c0.705,0,1.683-0.3,2.935-0.9c0.535-1.487,0.854-3.855,0.959-7.103
					C151.989,90.544,151.917,90.101,151.812,89.527z"/>
				<path fill-rule="evenodd" clip-rule="evenodd" d="M162.476,100.426c-1.683,0-2.713-0.15-3.091-0.45
					c-1.213-0.939-2.022-2.38-2.426-4.324c-0.235-1.161-0.353-2.863-0.353-5.107c0-0.235,0.007-0.365,0.02-0.391
					c0.352-1.461,1.05-2.485,2.093-3.072c0.874-0.509,2.113-0.763,3.718-0.763c1.853,0,3.209,0.313,4.07,0.939
					c0.587,0.417,0.985,1.004,1.194,1.761c0.156,0.521,0.235,1.246,0.235,2.172c0,0.73-0.04,1.617-0.118,2.661
					c-0.052,0.691-0.345,1.696-0.88,3.014c-0.587,1.409-1.115,2.283-1.585,2.622c-0.157,0.117-0.626,0.307-1.409,0.567
					C163.161,100.302,162.672,100.426,162.476,100.426z M161.185,88.451c-0.248,0-0.594,0.215-1.037,0.646
					c-0.431,0.43-0.659,0.783-0.685,1.057c-0.091,0.991-0.137,2.309-0.137,3.952c0,1.657,0.397,2.909,1.193,3.757
					c0.208,0.222,0.88,0.333,2.016,0.333c0.665,0,1.141-0.059,1.428-0.176c0.222-0.091,0.482-0.809,0.783-2.152
					c0.208-0.978,0.352-1.787,0.43-2.426c0.091-0.691,0.137-1.324,0.137-1.898c0-1.539-0.293-2.446-0.88-2.72
					c-0.144-0.078-0.666-0.163-1.565-0.254C162.045,88.49,161.484,88.451,161.185,88.451z"/>
				<path fill-rule="evenodd" clip-rule="evenodd" d="M172.964,100.074l-2.876,0.313c0.17-2.14,0.254-4.383,0.254-6.731
					c0,0-0.032-2.302-0.098-6.907l3.502-0.215c0.509-0.039,1.135-0.013,1.878,0.078c0.639,0.079,1.271,0.163,1.897,0.255
					l1.292,1.135c0.13,0.756,0.268,1.506,0.411,2.25c0.169,0.965,0.234,1.696,0.195,2.191v0.098
					c-0.378,0.43-0.757,0.867-1.136,1.311c-0.521,0.587-0.944,0.927-1.271,1.018c0.653,1.148,2.035,3.059,4.148,5.733l-1.839,0.528
					c-0.353-0.339-1.357-1.415-3.014-3.229c-1.708-1.865-2.596-2.876-2.661-3.033c0,0-0.104-0.3-0.313-0.9
					c1.057-0.287,1.689-0.483,1.898-0.587c0.392-0.196,0.9-0.639,1.526-1.331l-0.411-3.679l-3.561,0.215
					c-0.039,1.735-0.059,3.261-0.059,4.579C172.729,95.775,172.807,98.078,172.964,100.074z"/>
				<path fill-rule="evenodd" clip-rule="evenodd" d="M189.653,94.34l-4.637,0.45l-0.176,5.42l-2.31,0.274
					c-0.117-2.843-0.247-7.109-0.392-12.796l0.451-0.763l7.807-0.235l-0.646,1.781l-4.069,0.352l-0.549,0.411
					c-0.013,0.287-0.039,0.789-0.078,1.507c-0.052,0.639-0.078,1.148-0.078,1.526c0,0.222,0.007,0.43,0.02,0.626l4.932,0.02
					L189.653,94.34z"/>
				<path fill-rule="evenodd" clip-rule="evenodd" d="M201.413,100.915c-0.612-1.5-1.187-2.687-1.722-3.561
					c-0.612-1.004-1.428-2.061-2.445-3.169l-2.133,0.059c0.013,0.091,0.019,0.261,0.019,0.509c0,2.348-0.059,4.188-0.176,5.518
					l-2.406,0.118c-0.312-7.449-0.47-11.975-0.47-13.579l3.248-0.137l-0.176,6.164l2.856-0.666c0.535-1.422,1.121-2.759,1.762-4.011
					c0.155-0.3,0.325-0.711,0.508-1.232l2.563-0.215c-0.404,1.474-0.796,2.492-1.174,3.052c-0.509,0.744-1.259,1.872-2.25,3.385
					l1.956,1.644c0.392,1.148,0.952,2.883,1.684,5.205L201.413,100.915z"/>
				<path fill-rule="evenodd" clip-rule="evenodd" d="M207.812,100.25l-2.094,0.176l-0.489-10.233
					c-0.013-0.718-0.052-1.833-0.117-3.346l3.386-0.313c-0.145,2.296-0.288,4.585-0.432,6.868
					C207.896,96.193,207.812,98.476,207.812,100.25z"/>
				<path fill-rule="evenodd" clip-rule="evenodd" d="M221.605,99.897l-2.074,0.528c-1.408-4.409-2.967-7.898-4.676-10.468
					l-0.646,0.313c-0.221,2.792-0.358,6.138-0.41,10.038l-2.055,0.215c0-1.057-0.032-2.863-0.098-5.42
					c-0.053-2.387-0.078-4.2-0.078-5.439c0,0,0.091-0.868,0.274-2.603l3.717-0.391c1.318,2.27,2.14,3.698,2.466,4.285
					c0.874,1.669,1.52,3.189,1.938,4.559l-0.118-7.631c0,0,0.065-0.43,0.195-1.291l2.838-0.079
					C222.134,92.41,221.71,96.871,221.605,99.897z"/>
				<path fill-rule="evenodd" clip-rule="evenodd" d="M229.687,100.387c-0.691,0-2.002-0.026-3.933-0.079
					c-0.078-1.774-0.176-4.441-0.294-8.002c-0.013-1.239-0.059-3.092-0.137-5.557l5.01-0.293c0.352-0.013,1.089,0.124,2.211,0.411
					c1.135,0.287,1.794,0.535,1.977,0.743c0.064,0.091,0.156,0.222,0.273,0.392c0.587,0.887,0.881,1.807,0.881,2.759
					c0,4.422-0.744,7.305-2.231,8.648c-0.353,0.313-0.945,0.561-1.78,0.744C230.972,100.308,230.313,100.387,229.687,100.387z
					 M232.778,89.527l-1.78-1.037l-2.544-0.02c-0.117,2.608-0.176,4.735-0.176,6.379l0.02,3.972
					c0.261,0.026,0.528,0.039,0.803,0.039c0.704,0,1.682-0.3,2.935-0.9c0.534-1.487,0.854-3.855,0.959-7.103
					C232.955,90.544,232.883,90.101,232.778,89.527z"/>
				<path fill-rule="evenodd" clip-rule="evenodd" d="M245.692,94.556l-4.48,0.313v0.528c-0.014,1.774,0.091,2.792,0.312,3.052
					c0.222,0.261,1.807,0.366,4.755,0.313l-0.274,1.389c-2.479,0.222-4.415,0.333-5.811,0.333c-0.848,0-1.311-0.059-1.39-0.176
					c-0.261-0.339-0.392-3.28-0.392-8.824c0-2.713,0.124-4.201,0.372-4.461c0.261-0.261,2.328-0.391,6.203-0.391
					c0.626,0,1.167,0.006,1.624,0.02l-0.372,1.683c-2.714,0-4.227,0.169-4.539,0.509c-0.249,0.274-0.386,1.533-0.411,3.776
					l0.294,0.372l4.305,0.215L245.692,94.556z"/>
				<path fill-rule="evenodd" clip-rule="evenodd" d="M251.367,100.074l-2.877,0.313c0.17-2.14,0.255-4.383,0.255-6.731
					c0,0-0.032-2.302-0.099-6.907l3.503-0.215c0.509-0.039,1.135-0.013,1.879,0.078c0.639,0.079,1.271,0.163,1.897,0.255
					l1.292,1.135c0.13,0.756,0.267,1.506,0.41,2.25c0.169,0.965,0.235,1.696,0.195,2.191v0.098c-0.378,0.43-0.756,0.867-1.135,1.311
					c-0.521,0.587-0.945,0.927-1.271,1.018c0.652,1.148,2.034,3.059,4.147,5.733l-1.839,0.528c-0.353-0.339-1.356-1.415-3.013-3.229
					c-1.709-1.865-2.596-2.876-2.662-3.033c0,0-0.104-0.3-0.312-0.9c1.057-0.287,1.689-0.483,1.897-0.587
					c0.393-0.196,0.9-0.639,1.527-1.331l-0.412-3.679l-3.561,0.215c-0.039,1.735-0.059,3.261-0.059,4.579
					C251.132,95.775,251.21,98.078,251.367,100.074z"/>
				<path fill-rule="evenodd" clip-rule="evenodd" d="M260.27,91.034c0-2.178,0.241-3.489,0.724-3.933
					c0.222-0.196,1.181-0.353,2.877-0.47c1.174-0.078,2.224-0.118,3.15-0.118c0.69,0,1.662,0.124,2.914,0.372l-0.449,1.585
					c-1.409-0.131-2.113-0.196-2.113-0.196c-0.562,0-1.227,0.052-1.996,0.156c-0.991,0.131-1.578,0.293-1.761,0.489
					c-0.183,0.183-0.34,0.633-0.47,1.35c-0.117,0.6-0.176,1.109-0.176,1.526c0,1.292,0.15,3.463,0.449,6.516
					c1.422,0.352,2.506,0.528,3.249,0.528c0.234,0,0.397-0.02,0.488-0.059c0.457-0.196,0.686-1.161,0.686-2.896
					c0,0.104-0.059-0.346-0.177-1.35l-1.271-0.117l0.312-1.155c2.388,0,3.66,0.072,3.816,0.215
					c-0.418,3.496-0.789,5.531-1.115,6.105c-0.17,0.313-0.646,0.567-1.429,0.763c-0.613,0.144-1.168,0.215-1.663,0.215
					c-0.691,0-1.56-0.059-2.603-0.176c-1.304-0.157-2.106-0.339-2.407-0.548c-0.338-1.031-0.6-2.472-0.781-4.324
					C260.354,93.949,260.27,92.456,260.27,91.034z"/>
				<path fill-rule="evenodd" clip-rule="evenodd" d="M273.73,100.171l-2.229,0.254c0.495-3.235,0.919-5.59,1.271-7.063
					c0.612-2.609,1.415-4.853,2.407-6.731l4.695-0.293c1.018,3.522,1.722,6.287,2.113,8.296c0.092,0.43,0.202,1.069,0.333,1.917
					c0,0,0.117,1.279,0.352,3.835l-2.719-0.274l-0.274-3.972l-3.601,0.45l-1.448-0.372L273.73,100.171z M279.347,93.695
					c0-0.378-0.189-1.259-0.567-2.642c-0.379-1.396-0.665-2.25-0.86-2.563l-1.547,0.137c-0.508,1.526-0.86,2.837-1.056,3.933
					c-0.026,0.222-0.065,0.561-0.118,1.018c-0.052,0.273-0.117,0.678-0.195,1.213l4.285-0.392
					C279.327,94.399,279.347,94.165,279.347,93.695z"/>
				<path fill-rule="evenodd" clip-rule="evenodd" d="M287.506,100.074l-2.876,0.313c0.17-2.14,0.254-4.383,0.254-6.731
					c0,0-0.032-2.302-0.098-6.907l3.502-0.215c0.509-0.039,1.135-0.013,1.879,0.078c0.639,0.079,1.271,0.163,1.898,0.255
					l1.291,1.135c0.131,0.756,0.268,1.506,0.411,2.25c0.169,0.965,0.235,1.696,0.195,2.191v0.098
					c-0.378,0.43-0.757,0.867-1.135,1.311c-0.521,0.587-0.946,0.927-1.271,1.018c0.652,1.148,2.034,3.059,4.148,5.733l-1.84,0.528
					c-0.353-0.339-1.356-1.415-3.014-3.229c-1.709-1.865-2.596-2.876-2.661-3.033c0,0-0.104-0.3-0.312-0.9
					c1.057-0.287,1.689-0.483,1.897-0.587c0.392-0.196,0.9-0.639,1.526-1.331l-0.41-3.679l-3.562,0.215
					c-0.039,1.735-0.059,3.261-0.059,4.579C287.271,95.775,287.349,98.078,287.506,100.074z"/>
				<path fill-rule="evenodd" clip-rule="evenodd" d="M305.155,88.275l-3.229,0.626l-0.353,0.509c-0.078,2.4-0.215,6-0.411,10.801
					l-2.191,0.45c0.039-0.534,0.059-1.115,0.059-1.741c0-0.73-0.025-1.839-0.078-3.326c-0.052-1.487-0.078-2.596-0.078-3.326
					c0-0.744-0.078-1.735-0.235-2.974l-0.528-0.313l-3.032-0.352l0.255-1.663c3.183-0.117,6.385-0.254,9.606-0.411L305.155,88.275z"
					/>
				<path fill-rule="evenodd" clip-rule="evenodd" d="M314.155,94.556l-4.48,0.313v0.528c-0.014,1.774,0.092,2.792,0.313,3.052
					c0.221,0.261,1.807,0.366,4.754,0.313l-0.273,1.389c-2.479,0.222-4.415,0.333-5.812,0.333c-0.848,0-1.311-0.059-1.39-0.176
					c-0.261-0.339-0.391-3.28-0.391-8.824c0-2.713,0.124-4.201,0.371-4.461c0.261-0.261,2.329-0.391,6.203-0.391
					c0.626,0,1.167,0.006,1.624,0.02l-0.371,1.683c-2.714,0-4.228,0.169-4.54,0.509c-0.248,0.274-0.385,1.533-0.411,3.776
					l0.294,0.372l4.305,0.215L314.155,94.556z"/>
				<path fill-rule="evenodd" clip-rule="evenodd" d="M327.363,99.897l-2.074,0.528c-1.409-4.409-2.968-7.898-4.677-10.468
					l-0.646,0.313c-0.222,2.792-0.358,6.138-0.411,10.038l-2.055,0.215c0-1.057-0.032-2.863-0.098-5.42
					c-0.052-2.387-0.078-4.2-0.078-5.439c0,0,0.092-0.868,0.274-2.603l3.718-0.391c1.316,2.27,2.139,3.698,2.465,4.285
					c0.874,1.669,1.52,3.189,1.938,4.559l-0.118-7.631c0,0,0.066-0.43,0.196-1.291l2.837-0.079
					C327.892,92.41,327.468,96.871,327.363,99.897z"/>
			</g>
		</g>
	</g>
	<g>
		<path fill="#BA141A" d="M152.343,135.23c-1.183-1.159-2.028-2.28-2.372-3.162c-0.611-1.57,0.387-2.397,2.251-1.818
			c1.204,0.418,2.381,3.129,3.338,3.731c1.047,0.66,2,1.26,2.995,1.735c2.756-0.146,5.794-0.753,8.988-2.021
			c1.384-0.55,2.117-1.623,2.685-2.633c-6.117-2.404-4.032-6.38-4.435-7.813c-0.437-1.55,0.056-1.917,0.648-1.769
			c2.342-0.926,0.747-5.479,3.424-7.953c3.167-2.928,6.716-2.484,7.806-2.47c7.42,0.092,11.702,4.667,11.702,10.184
			c0,5.286-3.662,10.696-8.298,11.05c-0.32,0.098-0.584-0.938-0.771-0.938c-6.702,0-7.101,21.705-7.101,23.193
			c0,1.489,1.515,1.849,2.016,4.672c0.583,5.222-1.907,13.723-1.907,17.074c0,0.729-2.02,0.44-1.789,1.203
			c0.711,2.348-1.17,7.275-0.555,6.255c0.854,0.679-5.835-0.31-5.538-0.905c0.298,0.596-0.207-4.562-0.207-6.052
			c-0.096-0.1-0.34-0.177-0.824-0.411c-0.234-0.761-0.524-1.646-0.855-2.607c-0.435,1.027-0.763,1.915-0.908,2.593
			c-0.151,0.715-1.264-0.363-1.197,0.43c0.208,2.445-2.372,6.904-1.559,6.033c0.694,0.842-5.928-0.175-5.513-0.696
			c0.167,0.646,0.746-5.876,1.056-7.333c0.071-0.332-0.868,0.07-2.062-0.858c-0.28-3.113,2.808-8.273,3.21-12.551
			c-0.595-0.096-1.102-0.221-1.239-0.528c-2.532-13.142,1.799-16.241,3.032-19.547c-6.503,0.084-14.32-6.025-15.608-9.17
			c-0.639-1.559,0.345-2.404,2.219-1.857c1.923,0.822,1.554,2.599,3.254,3.485C149.366,134.366,150.752,134.877,152.343,135.23z"/>
		<g>
			<g>
				<circle fill="#BA141A" cx="131.721" cy="119.501" r="6.541"/>
				<path fill="#BA141A" d="M131.722,119.501"/>
			</g>
		</g>
		<path fill="#BA141A" d="M84.741,97.216c6.496,0,14.887,6.293,14.887,12.722c0,1.354-2.707,4.06-2.707,5.414
			c0,1.353,1.321,0.777,1.062,2.269c-1.097,2.048-2.453,7.471-9.35,6.101c-0.454,0.483-0.374,0.292-0.374,1.645
			s1.638,3.278,1.953,5.073c1.703,9.716,11.837,12.685,13.475,11.167c1.721-1.595,2.167-1.75,4.874-1.075
			c1.87,1.758-9.271,8.855-18.378,0.603l5.369,23.707c-5.546,1.454-10.24,2.077-10.24,2.077c0.308-0.085-0.167,17.116-0.998,17.323
			c0.613-1.224-1.157,2.31-3.303-1.038c-3.884-11.154-1.662-15.662-1.662-15.662c-0.599,0.034-1.217,0.03-1.85-0.004
			c-0.694,3.395-4.02,15.791-4.758,15.805c0.873-1.055-1.647,1.989-2.985-1.755c-1.018-9.368,0.8-13.739,1.577-15.124
			c-5.383-1.437-10.306-3.778-11.168-3.848c0.492-2.397,11.649-19.926,11.964-19.874c1.526-4.872,1.966-11.505,5.845-17.079
			c-0.463-0.375-3.941,2.624-7.331-1.106c4.411,0.851,6.247-1.896,6.247-3.25c0-1.353-2.166-11.91-2.166-13.263
			C74.726,102.698,77.5,97.216,84.741,97.216z"/>
	</g>
</g>
</svg>
